<svg xmlns="http://www.w3.org/2000/svg" width="117.305" height="105.228" viewBox="0 0 117.305 105.228"><defs><style>.a{fill:#005bde;}.b{fill:#007fff;}.c{fill:#0043c0;}.d{fill:#fff;}</style></defs><g transform="translate(21223.62 13183.912)"><path class="a" d="M130.656,95.44h-6.543a1.463,1.463,0,0,1-1.616-1.616V42.714a1.463,1.463,0,0,1,1.616-1.616h6.543a1.462,1.462,0,0,1,1.616,1.616v51.11a1.462,1.462,0,0,1-1.616,1.616m14.471-39.41H153.9a1.617,1.617,0,0,1,1.462.539q.385.539-.308,1.386L143.049,74.889V75.2l12.624,18.32a1.078,1.078,0,0,1,.077,1.386,2,2,0,0,1-1.616.616h-7.851a5.773,5.773,0,0,1-2.232-.308,3.849,3.849,0,0,1-1.386-1.309L131.118,76.659a2.232,2.232,0,0,1,0-2.54l10.853-16.472a3.387,3.387,0,0,1,3.079-1.539" transform="translate(-21282.156 -13225)"/><path class="b" d="M130.656,159.708h-6.543a1.463,1.463,0,0,1-1.616-1.616V121.914a1.463,1.463,0,0,1,1.616-1.616h6.543a1.462,1.462,0,0,1,1.616,1.616v2.54h.308a7,7,0,0,1,3.156-3,10.7,10.7,0,0,1,5.08-1.155H142.9q6.7,0,9.622,4.926,2.617-4.926,9.006-4.926h2.232q5.927,0,9.006,3.233t3.079,9.314v25.17a1.463,1.463,0,0,1-1.616,1.617h-6.543a1.462,1.462,0,0,1-1.616-1.616V133.306a5.122,5.122,0,0,0-1-3.541,4.588,4.588,0,0,0-3.464-1.078h-1.924q-5.311,0-5.311,5.927v23.323q0,1.616-1.693,1.617h-6.466a1.463,1.463,0,0,1-1.616-1.617V133.306a3.933,3.933,0,0,0-4.618-4.618h-2.386q-5.311,0-5.311,5.85v23.4a1.463,1.463,0,0,1-1.616,1.617" transform="translate(-21282.164 -13243.807)"/><path class="c" d="M91.66,99.835a35.955,35.955,0,0,0-4.7-3.748l1.77-1.683a16.529,16.529,0,0,0,4.157-13.845c-1.155-8.567-7.62-15.987-16.4-18.817s-15.472-1.53-23.939,3.06l-.847.535-.231.153-1.924,1.224a1.753,1.753,0,0,0-.539,2.371l1.462,2.142.462.765.231.306.231.382.308.382,3,4.284a1.776,1.776,0,0,0,2.386.688l3.31-1.683h.077c4.618-2.371,7.774-2.83,11.238-1.683A16.737,16.737,0,0,1,75.188,76.5a6.708,6.708,0,0,1,2.54,8.338L77.5,85.3c-1.847,2.065-6.312,3.748-12.008,4.513l-.77.153-2.232.229a1.762,1.762,0,0,0-1.539,1.912l.231,2.142a4.413,4.413,0,0,0,0,.612l.231,1.683v.382h0l.308,2.371.308,2.907a1.768,1.768,0,0,0,1.924,1.53l2.771-.229h.693c5.7-.229,10.16-.382,13.085,2.983a14.085,14.085,0,0,1,2.925,14.075,15.974,15.974,0,0,1-11.315,10.173l-.77.153h-.616a16.34,16.34,0,0,1-5.7.459c3.31-8.032,3.31-14.686-.077-19.888h-.077c-2.771-4.131-10.391-8.644-18.935-3.06-4.464,2.907-6.774,7.573-6.543,13.539s3.079,12.392,5.773,15.069l-1.463,1.759-2.232,2.754a1.752,1.752,0,0,0,.308,2.448l1.309,1.071.693.612,2.617,1.989h.077l.231.153.847.612.462.306L50.4,150.4a1.778,1.778,0,0,0,2.463-.382l1.539-1.836.693-.688,2.54-3.519a31.208,31.208,0,0,0,16.472.306l1.77-.382a29.408,29.408,0,0,0,20.783-19.2c2.925-8.72,2-17.058-5-25.089" transform="translate(-21263 -13229.414)"/><path class="d" d="M62.017,137.009a12.316,12.316,0,0,1-2.155,7,22.175,22.175,0,0,1-1.539,2.078,8.622,8.622,0,0,1-1.77,1.847,1.232,1.232,0,0,1-1.462-.154,17.629,17.629,0,0,1-2.771-2.771,14.241,14.241,0,0,1-2.848-5.08,8.467,8.467,0,0,1,.154-5.773,6.389,6.389,0,0,1,7.62-3.926,6.081,6.081,0,0,1,3.618,2.617,7.774,7.774,0,0,1,1.232,4.08" transform="translate(-21265.217 -13245.922)"/><path class="b" d="M59.55,135.647a2.925,2.925,0,1,1-.938-2.074,2.925,2.925,0,0,1,.938,2.074" transform="translate(-21266.301 -13246.52)"/></g></svg>