<svg xmlns="http://www.w3.org/2000/svg" width="1024" height="1080" viewBox="0 0 1024 1080"><defs><style>.a{fill:#165edb;}.b{fill:#fff;}</style></defs><rect class="a" width="1024" height="1080"/><g transform="translate(128.948 176.999)"><path class="b" d="M178.779,415.655H133.691a10.079,10.079,0,0,1-11.14-11.14V52.291a10.079,10.079,0,0,1,11.14-11.14h45.089a10.079,10.079,0,0,1,11.14,11.14V404.515a10.078,10.078,0,0,1-11.14,11.14M278.506,144.06h60.472a11.14,11.14,0,0,1,10.079,3.713q2.652,3.713-2.122,9.548l-82.751,116.7v2.122l87,126.249a7.427,7.427,0,0,1,.531,9.548,13.794,13.794,0,0,1-11.14,4.244H286.463a39.782,39.782,0,0,1-15.383-2.122,26.522,26.522,0,0,1-9.548-9.018L181.962,286.223a15.383,15.383,0,0,1,0-17.505l74.8-113.518a23.339,23.339,0,0,1,21.218-10.609" transform="translate(318.236 -41.088)"/><path class="b" d="M178.779,391.946H133.691a10.079,10.079,0,0,1-11.14-11.14V131.49a10.079,10.079,0,0,1,11.14-11.139h45.089a10.079,10.079,0,0,1,11.14,11.14V149h2.122a48.273,48.273,0,0,1,21.749-20.688,73.737,73.737,0,0,1,35.01-7.957h14.322q46.15,0,66.307,33.949,18.035-33.95,62.064-33.949h15.383q40.846,0,62.064,22.279t21.219,64.185v173.46a10.079,10.079,0,0,1-11.139,11.14H433.93a10.078,10.078,0,0,1-11.14-11.139V210q0-16.975-6.9-24.4t-23.871-7.427H378.762q-36.6,0-36.6,40.845V379.745q0,11.14-11.67,11.14H285.932a10.079,10.079,0,0,1-11.14-11.14V210q0-16.975-7.426-24.4t-24.4-7.427H226.521q-36.6,0-36.6,40.315V379.745a10.079,10.079,0,0,1-11.14,11.14" transform="translate(318.184 295.91)"/><path class="b" d="M399.669,333.038c-9.018-10.016-22.279-17.923-32.358-25.83l12.2-11.6A113.91,113.91,0,0,0,408.157,200.2C400.2,141.158,355.641,90.025,295.169,70.521S188.547,59.978,130.2,91.607l-5.835,3.69-1.591,1.054-13.261,8.434a12.079,12.079,0,0,0-3.713,16.341l10.079,14.76,3.183,5.272,1.591,2.109,1.591,2.636,2.122,2.636,20.688,29.52a12.241,12.241,0,0,0,16.444,4.744l22.81-11.6h.53c31.828-16.341,53.576-19.5,77.447-11.6a115.341,115.341,0,0,1,23.871,12.651,46.229,46.229,0,0,1,17.505,57.458l-1.592,3.163c-12.731,14.233-43.5,25.83-82.751,31.1l-5.3,1.054-15.383,1.582A12.142,12.142,0,0,0,188.017,279.8l1.591,14.76a30.409,30.409,0,0,0,0,4.217l1.591,11.6v2.636h0l2.122,16.341,2.122,20.032A12.183,12.183,0,0,0,208.7,359.922l19.1-1.581h4.774c39.254-1.581,70.02-2.636,90.178,20.559a97.064,97.064,0,0,1,20.157,96.994A110.087,110.087,0,0,1,264.933,546l-5.3,1.054h-4.244a112.6,112.6,0,0,1-39.254,3.163c22.81-55.35,22.81-101.211-.53-137.057h-.531c-19.1-28.466-71.612-59.567-130.493-21.086-30.766,20.031-46.68,52.187-45.089,93.3s21.218,85.4,39.784,103.847L69.194,601.353,53.811,620.33A12.073,12.073,0,0,0,55.932,637.2l9.018,7.38,4.774,4.217L87.76,662.5h.53l1.591,1.054,5.835,4.217,3.183,2.109,16.444,11.6a12.251,12.251,0,0,0,16.975-2.636l10.609-12.651,4.774-4.744L165.207,637.2a215.07,215.07,0,0,0,113.518,2.109l12.2-2.636A202.662,202.662,0,0,0,434.149,504.359c20.158-60.094,13.792-117.553-34.48-172.9" transform="translate(-39.379 41.396)"/><path class="a" d="M138.489,178.185a84.876,84.876,0,0,1-14.853,48.272,152.821,152.821,0,0,1-10.609,14.322,59.418,59.418,0,0,1-12.2,12.731,8.487,8.487,0,0,1-10.079-1.061,121.493,121.493,0,0,1-19.1-19.1,98.14,98.14,0,0,1-19.627-35.01,58.352,58.352,0,0,1,1.061-39.785A44.028,44.028,0,0,1,105.6,131.5a41.906,41.906,0,0,1,24.932,18.035,53.577,53.577,0,0,1,8.487,28.114" transform="translate(2.238 338.67)"/><path class="b" d="M94.01,152.45a20.158,20.158,0,1,1-6.463-14.3,20.157,20.157,0,0,1,6.463,14.3" transform="translate(22.248 350.896)"/></g></svg>