<svg xmlns="http://www.w3.org/2000/svg" width="80.37" height="73.021" viewBox="0 0 80.37 73.021">
  <g id="Group_43598" data-name="Group 43598" transform="translate(0 0.001)">
    <path id="Path_117565" data-name="Path 117565" d="M115.409,99l-.309.485.353-.485" transform="translate(-64.395 -55.364)" fill="#007fff"/>
    <path id="Path_117566" data-name="Path 117566" d="M104.266,37.686h-4.143A1.322,1.322,0,0,1,98.8,36.364V1.322A1.322,1.322,0,0,1,100.122,0h4.143a1.322,1.322,0,0,1,1.322,1.322V36.364a1.322,1.322,0,0,1-1.322,1.322m10.226-27.328h6.083a1.146,1.146,0,0,1,1.014.4q.264.4-.176.97l-8.419,11.813,8.816,12.827a.749.749,0,0,1,.044.926,1.366,1.366,0,0,1-1.146.4h-5.377a4.011,4.011,0,0,1-1.543-.22,2.689,2.689,0,0,1-.97-.926L104.839,24.6a1.543,1.543,0,0,1,0-1.763l7.537-11.416a2.38,2.38,0,0,1,2.16-1.058" transform="translate(-55.28 -0.001)" fill="#fff"/>
    <path id="Path_117567" data-name="Path 117567" d="M31.242,46.917c7.978-8.948.485-24.11-11.416-23.537A30.165,30.165,0,0,0,8.1,26.509a1.322,1.322,0,0,0-.617,1.763l2.689,5.554a1.322,1.322,0,0,0,1.763.617,21.146,21.146,0,0,1,8.11-2.248c3.262-.132,4.981,2.336,5.51,4.584A4.721,4.721,0,0,1,22.6,42.51c-1.543.705-5.377,1.19-8.287,1.41a1.322,1.322,0,0,0-1.234,1.322l.264,6.171a1.322,1.322,0,0,0,1.366,1.278c1.983-.088,5.73-.176,7.449-.176s3.394.926,5.333,2.733c4.672,4.5,4.011,15.075-4.452,17.278a19.041,19.041,0,0,1-5.069.529c3.526-6.964.4-17.851-8.551-17.9a8.8,8.8,0,0,0-7.1,3.791C-1.463,63.843-.317,72.659,4.443,76.934L1.931,80.416a1.322,1.322,0,0,0,.309,1.851l5.025,3.57a1.322,1.322,0,0,0,1.851-.309l3.174-4.408c10.843,2.733,23.317-1.5,26.182-13.311,2.116-8.066-.793-16.441-7.273-20.893M14.228,65.43a12.75,12.75,0,0,1-3.967,7.625.926.926,0,0,1-1.366,0A12.75,12.75,0,0,1,4.928,65.43c-.22-2.865,1.5-5.289,4.628-5.289s4.8,2.645,4.628,5.289" transform="translate(-0.063 -13.067)" fill="#fff"/>
    <path id="Path_117592" data-name="Path 117592" d="M135.573,102.8v17.278a1.322,1.322,0,0,1-1.322,1.322h-4.143a1.322,1.322,0,0,1-1.322-1.322V102.628a2.689,2.689,0,0,0-2.645-2.953h-1.983a3.526,3.526,0,0,0-3.526,3.526v16.882a1.322,1.322,0,0,1-1.322,1.322h-4.143a1.322,1.322,0,0,1-1.322-1.322V102.275a2.645,2.645,0,0,0-2.645-2.645h-1.983a3.526,3.526,0,0,0-2.6,1.146h0a3.526,3.526,0,0,0-.926,2.38v16.882a1.322,1.322,0,0,1-1.322,1.322h-4.143a1.322,1.322,0,0,1-1.322-1.322V95.531a1.455,1.455,0,0,1,1.455-1.455h4.011a1.322,1.322,0,0,1,1.322,1.322v1.587a6.083,6.083,0,0,1,.485-.749c1.41-1.719,3.835-2.292,6.083-2.16a9.89,9.89,0,0,1,5.774,1.807h.044a6.172,6.172,0,0,1,1.366,1.675,8.419,8.419,0,0,1,1.631-2.072h.044l.265-.176h.044a7.405,7.405,0,0,1,4.364-1.19h1.543c5.6,0,8.375,3.218,8.375,8.727" transform="translate(-55.335 -52.601)" fill="#fff"/>
    <path id="Path_117593" data-name="Path 117593" d="M21.208,114a2.2,2.2,0,1,1-2.2-2.2,2.2,2.2,0,0,1,2.2,2.2" transform="translate(-9.423 -62.522)" fill="#fff"/>
    <path id="Path_117594" data-name="Path 117594" d="M21.208,114a2.2,2.2,0,1,1-2.2-2.2,2.2,2.2,0,0,1,2.2,2.2" transform="translate(-9.423 -62.522)" fill="#fff"/>
  </g>
</svg>
