<svg xmlns="http://www.w3.org/2000/svg" xmlns:xlink="http://www.w3.org/1999/xlink" width="48" height="48" viewBox="0 0 48 48"><defs><clipPath id="a"><path class="a" d="M24,0A24,24,0,1,1,0,24,24,24,0,0,1,24,0Z" transform="translate(36 517)"/></clipPath></defs><g transform="translate(-36 -517)" clip-path="url(#a)"><g transform="translate(6679 12050)"><rect width="14" height="48" transform="translate(-6643 -11533)" fill="#ff5858"/><rect width="14" height="48" transform="translate(-6629 -11533)" fill="#fba924"/><rect width="14" height="48" transform="translate(-6615 -11533)" fill="#43b978"/><rect class="a" width="14" height="48" transform="translate(-6601 -11533)"/></g><g transform="translate(43 525)"><rect width="35" height="35" fill="none"/><path d="M30.6,1H24.784a1.455,1.455,0,1,0,0,2.91h2.3L21.306,9.688a7.961,7.961,0,0,0-9.052,0l-.946-.946,1.019-1.019a1.451,1.451,0,0,0-2.052-2.052L9.256,6.69,6.477,3.91h2.3a1.455,1.455,0,1,0,0-2.91H2.955A1.46,1.46,0,0,0,1.5,2.455V8.276a1.455,1.455,0,0,0,2.91,0v-2.3L7.19,8.742,6.157,9.775a1.451,1.451,0,0,0,2.052,2.052l1.033-1.033.946.946a8.007,8.007,0,0,0,5.137,12.413v3.041H13.87a1.455,1.455,0,0,0,0,2.91h1.455V31.56a1.455,1.455,0,0,0,2.91,0V30.1h1.455a1.455,1.455,0,1,0,0-2.91H18.235V24.153A8.007,8.007,0,0,0,23.372,11.74L29.15,5.977v2.3a1.455,1.455,0,1,0,2.91,0V2.455A1.46,1.46,0,0,0,30.6,1ZM16.78,21.373a5.093,5.093,0,1,1,5.093-5.093A5.1,5.1,0,0,1,16.78,21.373Z" transform="translate(0.683 0.455)" fill="#fff"/></g></g></svg>